<?xml version="1.0" encoding="UTF-8"?>
<svg id="Capa_2" data-name="Capa 2" xmlns="http://www.w3.org/2000/svg" viewBox="0 0 293.4 81.14">
  <defs>
    <style>
      .cls-1 {
        fill: #fff;
      }
    </style>
  </defs>
  <g id="Capa_1-2" data-name="Capa 1">
    <g>
      <path class="cls-1" d="m140.32,40.98c0-5.64.04-11.28-.03-16.92-.02-1.51.52-1.92,1.96-1.89,5.82.09,11.64.02,17.46.12,9.06.15,14.63,5.2,16.02,14.18.76,4.93.48,9.7-1.59,14.26-2.6,5.75-7.3,8.66-13.43,8.99-6.22.34-12.46.23-18.7.37-1.39.03-1.69-.6-1.69-1.83.04-5.76.02-11.52.02-17.28-.01,0-.02,0-.04,0Zm11.98-.16h0c0,1.78-.05,3.56,0,5.33.16,5.03-1.09,4.62,4.91,4.37,2.88-.12,5.5-1.15,6.11-4.37.46-2.41.72-4.94.54-7.38-.18-2.52-.74-5.32-3.53-6.3-2.01-.71-4.27-.7-6.43-.99-1.28-.17-1.65.52-1.63,1.68.04,2.55.01,5.1.01,7.64Z"/>
      <path class="cls-1" d="m219.19,48.44c3.43,0,6.92-.05,10.4.05.46.01,1.04.69,1.33,1.19,1.53,2.71,7.05,3.59,9.25,1.42,1.22-1.2,1.06-2.83-.68-3.63-2.19-1-4.58-1.55-6.84-2.4-3.19-1.2-6.78-1.91-9.41-3.88-6.55-4.91-4.55-15.66,3.16-18.49,5.84-2.14,11.74-2.29,17.57-.07,4.49,1.71,6.97,5.08,7.47,10.08-.59.06-1.09.14-1.59.15-2.61.02-5.23-.02-7.84.04-1.08.02-1.75-.18-2.33-1.29-1.26-2.4-5.62-2.99-7.72-1.23-1.05.88-1.25,2.26-.14,3.02,1.28.88,2.77,1.54,4.26,2.03,2.87.94,5.81,1.63,8.69,2.55,4.45,1.41,7.37,4.25,7.76,9.11.42,5.2-1.34,9.65-6.2,11.77-7.45,3.25-15.07,3.48-22.33-.94-2.82-1.71-5.55-6.27-4.81-9.49Z"/>
      <path class="cls-1" d="m101.14,40.99c0-5.64.04-11.28-.03-16.92-.02-1.48.45-1.94,1.93-1.92,5.99.09,11.99,0,17.98.12,3.92.08,7.68.86,10.62,3.76,3.64,3.59,3.99,8.1,3.11,12.74-1.02,5.39-4.65,8.53-10.52,9.21-3.05.35-6.16.34-9.24.35-1.46,0-2,.5-1.95,1.97.1,2.67,0,5.34.07,8.01.03,1.32-.47,1.77-1.78,1.74-2.73-.06-5.46-.06-8.19.04-1.52.06-2.1-.41-2.08-2.01.08-5.7.03-11.4.03-17.09.01,0,.02,0,.04,0Zm16.33-9.77c-.92,0-1.69.06-2.45-.01-1.49-.14-2,.53-1.92,1.97.08,1.59-.09,3.2.06,4.78.04.49.75,1.32,1.15,1.32,2.23-.01,4.49-.07,6.69-.44,2.06-.35,2.96-1.91,2.78-4.06-.17-1.94-1.24-3.06-3.27-3.32-1.05-.13-2.12-.17-3.03-.24Z"/>
      <path class="cls-1" d="m293.4,60.01c-3.8,0-7.35.07-10.89-.08-.47-.02-1.08-1.11-1.3-1.81-1-3.08-.96-3.09-4.13-3.1-2.55,0-5.11.02-7.66-.03-1.06-.02-1.55.38-1.88,1.41-1.15,3.62-1.19,3.62-5.01,3.65-2.53.02-5.06,0-7.83,0,1.02-2.89,1.93-5.49,2.85-8.09,3.32-9.44,6.66-18.88,9.94-28.33.34-.97.73-1.47,1.85-1.45,3.21.06,6.41.02,9.62,0,.93,0,1.48.24,1.83,1.25,4.09,11.8,8.24,23.58,12.37,35.37.09.27.12.56.25,1.23Zm-23.23-12.9h7.97c-1.28-4.37-2.49-8.52-3.7-12.67-.2.03-.4.06-.6.09-1.2,4.12-2.4,8.23-3.66,12.57Z"/>
      <path class="cls-1" d="m216,22.18c-1.26,3.84-2.37,7.26-3.52,10.67-2.9,8.58-5.84,17.14-8.69,25.74-.34,1.02-.75,1.5-1.82,1.48-3.15-.04-6.3.03-9.44-.11-.6-.03-1.5-.73-1.7-1.32-2.33-6.71-4.54-13.45-6.81-20.18-1.51-4.49-3.06-8.96-4.58-13.45-.28-.83-.52-1.67-.88-2.83h7.33c.42,0,.83,0,1.25,0,3.96,0,3.81.03,4.74,3.91,1.56,6.5,3.32,12.96,5.01,19.44.04.15.19.26.55.73.69-2.31,1.34-4.34,1.91-6.39,1.5-5.42,2.94-10.85,4.48-16.26.16-.56.84-1.35,1.31-1.37,3.49-.12,6.98-.06,10.86-.06Z"/>
      <path class="cls-1" d="m12.37,10.64c2.37-1.78,4.67-3.61,7.12-5.21.41-.27,1.69.24,2.2.75,5.32,5.32,10.57,10.71,15.84,16.08.66.68,1.4,1.3,1.99,2.04,1.02,1.27,1.84,1.03,2.91-.02,6.08-6,12.23-11.92,18.3-17.93.94-.93,1.64-.94,2.58-.19,1.72,1.36,3.45,2.7,5.19,4.03,1.07.82,1.2,1.55.14,2.59-8.92,8.79-17.81,17.6-26.67,26.46-.93.93-1.45.8-2.28-.06-8.85-9.16-17.73-18.29-26.59-27.43-.2-.2-.32-.48-.73-1.09Z"/>
      <path class="cls-1" d="m12.22,70.16c9.71-10,19.07-19.63,28.61-29.46,1.51,1.46,2.99,2.85,4.44,4.29,7.72,7.68,15.41,15.4,23.17,23.03,1.22,1.2,1.19,1.94-.15,2.91-1.68,1.21-3.28,2.53-4.91,3.81-.98.77-1.76.82-2.75-.16-5.92-5.89-11.92-11.7-17.88-17.55-1.82-1.78-1.94-1.77-3.77.11-5.81,5.97-11.67,11.9-17.47,17.88-.92.95-1.57,1.11-2.64.22-2.08-1.72-4.28-3.28-6.66-5.08Z"/>
      <path class="cls-1" d="m9.03,66.24c-1.55-2.43-3.1-4.86-4.64-7.29-.7-1.1.07-1.74.74-2.43,4.88-5.02,9.72-10.07,14.65-15.04.97-.98,1.05-1.54.04-2.57-4.82-4.9-9.54-9.91-14.35-14.82-1.05-1.07-1.47-2.01-.55-3.36,1.2-1.76,2.32-3.58,3.45-5.38.76-1.2,1.44-1.25,2.48-.18,6.82,7.02,13.7,13.98,20.56,20.96,1,1.01,1.93,2.11,3.01,3.02,1.11.93,1.02,1.55,0,2.54-7.34,7.17-14.63,14.39-21.9,21.63-.96.95-1.75,2.08-2.61,3.13-.29-.07-.58-.14-.87-.21Z"/>
      <path class="cls-1" d="m72.39,67.03c-8.87-9.04-17.37-17.7-26.07-26.58,8.86-8.63,17.63-17.18,26.71-26.03,1.75,2.85,3.39,5.43,4.91,8.07.17.3-.18,1.11-.52,1.46-5.12,5.24-10.25,10.48-15.46,15.64-1,.99-.88,1.53,0,2.43,4.81,4.88,9.56,9.83,14.38,14.7,1.14,1.15,1.64,2.18.58,3.65-1.5,2.1-2.91,4.26-4.53,6.65Z"/>
      <path class="cls-1" d="m23.6,3C27.39,1.89,30.66.89,33.95.02c.41-.11,1.08.35,1.47.72,1.51,1.43,2.99,2.89,4.41,4.4.84.89,1.51.9,2.37.02,1.32-1.36,2.83-2.55,4.06-3.98,1-1.16,2.14-1.22,3.37-.85,2.83.85,5.62,1.8,8.35,2.68-5.65,5.74-11.18,11.36-16.82,17.09-5.69-5.54-11.43-11.12-17.57-17.1Z"/>
      <path class="cls-1" d="m41.39,60.54c5.69,5.86,11.11,11.44,16.87,17.37-3.33,1.02-6.5,2.05-9.72,2.92-.51.14-1.34-.33-1.82-.75-1.6-1.4-3.15-2.88-4.64-4.4-.75-.76-1.26-.81-2.03,0-1.54,1.63-3.17,3.18-4.79,4.74-.32.31-.8.76-1.13.71-3.44-.57-6.83-1.32-9.74-3.01,5.63-5.82,11.2-11.58,17.01-17.59Z"/>
      <path class="cls-1" d="m79.66,26.93c3.39,9.37,2.98,18.4-.18,27.92-1.8-1.87-3.37-3.51-4.94-5.14-2.51-2.6-4.99-5.23-7.55-7.77-1.02-1.02-1.06-1.66.05-2.72,3.8-3.65,7.48-7.44,11.21-11.17.36-.36.81-.65,1.41-1.12Z"/>
      <path class="cls-1" d="m2.39,53.83c-3.29-9.3-3.06-18.32-.06-27.83,1.6,1.66,2.96,3.07,4.32,4.48,2.8,2.9,5.6,5.79,8.4,8.68.54.55,1.22,1.08.37,1.91-4.3,4.21-8.61,8.42-13.04,12.75Z"/>
    </g>
  </g>
</svg>